<svg width="40" height="40" viewBox="0 0 40 40" fill="none" xmlns="http://www.w3.org/2000/svg">
<g clip-path="url(#clip0)">
<path d="M20 40C31.0457 40 40 31.0457 40 20C40 8.9543 31.0457 0 20 0C8.9543 0 0 8.9543 0 20C0 31.0457 8.9543 40 20 40Z" fill="#3C5A9A"/>
<path d="M26.5032 6.13892H22.0727C19.4435 6.13892 16.5191 7.24473 16.5191 11.0559C16.532 12.3838 16.5191 13.6556 16.5191 15.0869H13.4775V19.9271H16.6133V33.8611H22.3753V19.8351H26.1785L26.5226 15.0734H22.276C22.276 15.0734 22.2855 12.9551 22.276 12.34C22.276 10.8339 23.8431 10.9201 23.9374 10.9201C24.6831 10.9201 26.1331 10.9223 26.5053 10.9201V6.13892H26.5032V6.13892Z" fill="white"/>
</g>
<defs>
<clipPath id="clip0">
<rect width="40" height="40" fill="white"/>
</clipPath>
</defs>
</svg>
