<svg width="41" height="40" viewBox="0 0 41 40" fill="none" xmlns="http://www.w3.org/2000/svg">
<g clip-path="url(#clip0)">
<path d="M19.9084 0.0112305C9.73863 0.0112305 10.3736 4.42142 10.3736 4.42142L10.3849 8.99051H20.0897V10.3623H6.53031C6.53031 10.3623 0.0227051 9.62423 0.0227051 19.8854C0.0227051 30.1469 5.7027 29.7829 5.7027 29.7829H9.09251V25.0212C9.09251 25.0212 8.90976 19.3412 14.6818 19.3412H24.3073C24.3073 19.3412 29.7151 19.4286 29.7151 14.1147V5.32855C29.7151 5.32855 30.5364 0.0112305 19.9084 0.0112305ZM14.5571 3.08385C14.7865 3.08365 15.0136 3.12866 15.2255 3.21633C15.4374 3.30399 15.63 3.43259 15.7921 3.59475C15.9543 3.75691 16.0829 3.94945 16.1705 4.16137C16.2582 4.37328 16.3032 4.6004 16.303 4.82973C16.3032 5.05906 16.2582 5.28618 16.1705 5.49809C16.0829 5.71001 15.9543 5.90255 15.7921 6.06471C15.63 6.22687 15.4374 6.35547 15.2255 6.44313C15.0136 6.5308 14.7865 6.57582 14.5571 6.57561C14.3278 6.57582 14.1007 6.5308 13.8888 6.44313C13.6769 6.35547 13.4843 6.22687 13.3222 6.06471C13.16 5.90255 13.0314 5.71001 12.9437 5.49809C12.8561 5.28618 12.811 5.05906 12.8113 4.82973C12.811 4.6004 12.8561 4.37328 12.9437 4.16137C13.0314 3.94945 13.16 3.75691 13.3222 3.59475C13.4843 3.43259 13.6769 3.30399 13.8888 3.21633C14.1007 3.12866 14.3278 3.08365 14.5571 3.08385V3.08385Z" fill="url(#paint0_linear)"/>
<path d="M20.1971 39.863C30.3668 39.863 29.7318 35.4528 29.7318 35.4528L29.7206 30.8839H20.0156V29.5121H33.575C33.575 29.5121 40.0826 30.2501 40.0826 19.9886C40.0826 9.72727 34.4026 10.0912 34.4026 10.0912H31.0128V14.8528C31.0128 14.8528 31.1955 20.5328 25.4235 20.5328H15.798C15.798 20.5328 10.3902 20.4454 10.3902 25.7595V34.5458C10.3902 34.5458 9.56902 39.863 20.1969 39.863H20.1971ZM25.5483 36.7907C25.319 36.7909 25.0919 36.7459 24.88 36.6582C24.668 36.5706 24.4755 36.442 24.3133 36.2798C24.1512 36.1176 24.0226 35.9251 23.9349 35.7132C23.8472 35.5013 23.8022 35.2741 23.8024 35.0448C23.8022 34.8155 23.8472 34.5883 23.9349 34.3764C24.0225 34.1645 24.1511 33.9719 24.3133 33.8097C24.4754 33.6475 24.668 33.5189 24.8799 33.4313C25.0918 33.3436 25.319 33.2986 25.5483 33.2988C25.7776 33.2986 26.0048 33.3436 26.2167 33.4312C26.4286 33.5189 26.6211 33.6475 26.7833 33.8097C26.9455 33.9718 27.0741 34.1644 27.1617 34.3763C27.2494 34.5882 27.2944 34.8153 27.2942 35.0447C27.2944 35.274 27.2494 35.5011 27.1617 35.713C27.0741 35.9249 26.9455 36.1175 26.7833 36.2796C26.6211 36.4418 26.4286 36.5704 26.2167 36.6581C26.0048 36.7457 25.7776 36.7908 25.5483 36.7905V36.7907Z" fill="url(#paint1_linear)"/>
</g>
<defs>
<linearGradient id="paint0_linear" x1="3.87245" y1="3.59564" x2="23.7249" y2="23.2501" gradientUnits="userSpaceOnUse">
<stop stop-color="#387EB8"/>
<stop offset="1" stop-color="#366994"/>
</linearGradient>
<linearGradient id="paint1_linear" x1="16.0579" y1="16.2167" x2="37.3772" y2="36.3705" gradientUnits="userSpaceOnUse">
<stop stop-color="#FFE052"/>
<stop offset="1" stop-color="#FFC331"/>
</linearGradient>
<clipPath id="clip0">
<rect width="40.1606" height="40" fill="white"/>
</clipPath>
</defs>
</svg>
