<svg width="40" height="40" viewBox="0 0 40 40" fill="none" xmlns="http://www.w3.org/2000/svg">
<path d="M18.4083 5.20044L19.2752 6.82861C19.4701 7.12907 19.6812 7.39502 19.9299 7.64269C20.659 8.36271 21.3386 9.13117 21.9641 9.94284C23.4329 11.8715 24.4236 14.0133 25.1311 16.3296C25.5554 17.7446 25.7859 19.1962 25.8031 20.664C25.8742 25.0521 24.3698 28.8201 21.3368 31.9515C20.8434 32.4481 20.3104 32.9037 19.7431 33.3138C19.4426 33.3138 19.3005 33.0833 19.1767 32.8712C18.9512 32.4778 18.8011 32.0458 18.7341 31.5973C18.6275 31.0664 18.5575 30.5355 18.592 29.9874V29.7397C18.5677 29.6869 18.3027 5.32529 18.4083 5.20044V5.20044Z" fill="#599636"/>
<path d="M18.4081 5.14662C18.3725 5.07556 18.337 5.12936 18.3015 5.16387C18.3187 5.51915 18.1949 5.83585 18.001 6.13834C17.7879 6.4388 17.5057 6.66922 17.2225 6.9169C15.6491 8.27912 14.4107 9.92455 13.4189 11.7649C12.0993 14.2416 11.4192 16.8961 11.2264 19.6905C11.1381 20.6985 11.5451 24.2553 11.8628 25.2815C12.7297 28.006 14.2868 30.2889 16.3038 32.2703C16.7992 32.7474 17.329 33.1899 17.8772 33.6153C18.0366 33.6153 18.0538 33.4732 18.0904 33.3676C18.1602 33.1417 18.2135 32.911 18.2497 32.6773L18.605 30.0239L18.4081 5.14662Z" fill="#6CAC48"/>
<path d="M19.2752 34.3917C19.3107 33.9857 19.5056 33.6487 19.7178 33.3127C19.5046 33.2244 19.3463 33.0488 19.2224 32.8529C19.1156 32.6674 19.0272 32.4719 18.9585 32.2693C18.7108 31.5262 18.658 30.7467 18.587 29.9874V29.5276C18.4987 29.5986 18.4804 30.1996 18.4804 30.2889C18.4287 31.0914 18.3223 31.8894 18.1617 32.6773C18.1089 32.996 18.0734 33.3138 17.8774 33.597C17.8774 33.6325 17.8774 33.668 17.8947 33.7208C18.2134 34.6587 18.3007 35.6139 18.3545 36.5873V36.9426C18.3545 37.3669 18.3373 37.2776 18.6895 37.4197C18.8316 37.4724 18.99 37.4907 19.1321 37.5963C19.2387 37.5963 19.2559 37.508 19.2559 37.4369L19.2031 36.8533V35.2251C19.1859 34.9409 19.2387 34.6587 19.2742 34.3928L19.2752 34.3917Z" fill="#C2BFBF"/>
</svg>
