<svg width="41" height="40" viewBox="0 0 41 40" fill="none" xmlns="http://www.w3.org/2000/svg">
<g clip-path="url(#clip0)">
<path d="M1.16377 14.299C1.16377 14.299 0.199524 13.6039 1.35662 12.6758L4.05248 10.2652C4.05248 10.2652 4.82387 9.45365 5.63946 10.1608L30.5169 28.9956V38.0273C30.5169 38.0273 30.5049 39.4455 28.6849 39.2888L1.16377 14.299Z" fill="#2489CA"/>
<path d="M7.57664 20.1206L1.16443 25.9502C1.16443 25.9502 0.505527 26.4404 1.16443 27.3162L4.14153 30.0241C4.14153 30.0241 4.84864 30.7835 5.89323 29.9197L12.6911 24.765L7.57664 20.1206Z" fill="#1070B3"/>
<path d="M18.8339 20.1688L30.5937 11.1893L30.5174 2.20579C30.5174 2.20579 30.0151 0.245167 28.3398 1.26566L12.6909 15.5083L18.8339 20.1688Z" fill="#0877B9"/>
<path d="M28.6854 39.301C29.3684 40.0001 30.1961 39.7711 30.1961 39.7711L39.3606 35.2552C40.5338 34.4557 40.3691 33.4633 40.3691 33.4633V6.49666C40.3691 5.31144 39.1557 4.90164 39.1557 4.90164L31.2126 1.07279C29.4769 7.24232e-05 28.3398 1.26564 28.3398 1.26564C28.3398 1.26564 29.8023 0.21301 30.5175 2.20578V37.8627C30.5175 38.1077 30.4652 38.3488 30.3608 38.5658C30.1519 38.9876 29.6979 39.3813 28.609 39.2166L28.6854 39.301Z" fill="#3C99D4"/>
</g>
<defs>
<clipPath id="clip0">
<rect width="40.7332" height="40" fill="white"/>
</clipPath>
</defs>
</svg>
