<svg width="72" height="40" viewBox="0 0 72 40" fill="none" xmlns="http://www.w3.org/2000/svg">
<g clip-path="url(#clip0)">
<path d="M59.0843 40H12.9553C12.0815 40 11.2434 39.6529 10.6255 39.035C10.0075 38.417 9.6604 37.579 9.6604 36.7051V3.75575C9.6604 2.88188 10.0075 2.0438 10.6255 1.42588C11.2434 0.807959 12.0815 0.460815 12.9553 0.460815H59.0843C59.9582 0.460815 60.7962 0.807959 61.4142 1.42588C62.0321 2.0438 62.3792 2.88188 62.3792 3.75575V36.7051C62.3792 37.579 62.0321 38.417 61.4142 39.035C60.7962 39.6529 59.9582 40 59.0843 40V40Z" fill="#EAEAEA"/>
<path d="M16.2503 40H12.9553C12.0815 40 11.2434 39.6529 10.6255 39.035C10.0075 38.417 9.6604 37.579 9.6604 36.7051V3.75575C9.6604 3.32305 9.74563 2.89459 9.91121 2.49483C10.0768 2.09507 10.3195 1.73184 10.6255 1.42588C10.9314 1.11992 11.2947 0.877213 11.6944 0.711627C12.0942 0.546041 12.5226 0.460815 12.9553 0.460815C13.388 0.460815 13.8165 0.546041 14.2163 0.711627C14.616 0.877213 14.9793 1.11992 15.2852 1.42588C15.5912 1.73184 15.8339 2.09507 15.9995 2.49483C16.1651 2.89459 16.2503 3.32305 16.2503 3.75575V40Z" fill="#D54C3F"/>
<path d="M55.7893 40H59.0842C59.9581 40 60.7962 39.6529 61.4141 39.035C62.032 38.417 62.3792 37.579 62.3792 36.7051V3.75575C62.3792 2.88188 62.032 2.0438 61.4141 1.42588C60.7962 0.807959 59.9581 0.460815 59.0842 0.460815C58.2104 0.460815 57.3723 0.807959 56.7544 1.42588C56.1365 2.0438 55.7893 2.88188 55.7893 3.75575V40Z" fill="#B63524"/>
<path d="M60.9713 6.45755C61.3261 6.20976 61.6287 5.89452 61.8616 5.52981C62.0946 5.1651 62.2535 4.75807 62.3291 4.33197C62.4048 3.90587 62.3958 3.46903 62.3027 3.0464C62.2095 2.62377 62.034 2.22363 61.7863 1.86882C61.5385 1.51401 61.2232 1.21148 60.8585 0.978505C60.4938 0.745528 60.0868 0.586667 59.6607 0.510992C59.2346 0.435318 58.7977 0.444311 58.3751 0.53746C57.9525 0.630608 57.5523 0.806087 57.1975 1.05388L36.022 16.4708L36.0198 16.4719L36.0176 16.4708L14.8421 1.05388C14.1255 0.553442 13.2395 0.35816 12.3789 0.510992C11.5184 0.663824 10.7538 1.15225 10.2533 1.86882C9.75291 2.58539 9.55762 3.47142 9.71046 4.33197C9.86329 5.19252 10.3517 5.95712 11.0683 6.45755L10.9804 6.39275L36.0198 24.6236L60.9713 6.45755ZM61.0603 6.39275L36.0198 24.6236Z" fill="#DE5145"/>
<path d="M59.0841 0.460819C58.3823 0.460819 57.731 0.680482 57.1972 1.05391L36.0218 16.4709L36.0196 16.472L36.0174 16.4709L14.842 1.05391C14.289 0.666867 13.6301 0.459762 12.9551 0.460819H59.0841Z" fill="#EFEFEF"/>
<path d="M16.2515 11.6504L10.6985 6.15002L10.6963 6.15442C10.8127 6.26425 10.9368 6.36529 11.0686 6.45755L10.9808 6.39275L16.2526 10.2313L16.2515 11.6899" fill="#C64132"/>
<path d="M32.3602 27.4693L16.2502 40L16.2513 11.5131L32.3569 27.4649" fill="#E3E3E3"/>
<path d="M32.3601 27.4693L36.0197 24.6235L16.2512 10.2313V11.513L32.3569 27.4649L32.3601 27.4693Z" fill="url(#paint0_linear)"/>
<path d="M44.8733 40.0001H55.7895V10.2303L36.0198 24.6237L32.3569 27.465L44.8733 40.0001Z" fill="url(#paint1_linear)"/>
</g>
<defs>
<linearGradient id="paint0_linear" x1="16.2512" y1="18.8508" x2="36.0197" y2="18.8508" gradientUnits="userSpaceOnUse">
<stop stop-color="#C8C8C8"/>
<stop offset="1" stop-color="#CDCDCD"/>
</linearGradient>
<linearGradient id="paint1_linear" x1="32.3569" y1="25.1147" x2="55.7895" y2="25.1147" gradientUnits="userSpaceOnUse">
<stop stop-color="#D9D9D9"/>
<stop offset="1" stop-color="#E2E2E2"/>
</linearGradient>
<clipPath id="clip0">
<rect width="71.736" height="40" fill="white"/>
</clipPath>
</defs>
</svg>
