<svg width="40" height="40" viewBox="0 0 40 40" fill="none" xmlns="http://www.w3.org/2000/svg">
<path d="M20 40C31.0457 40 40 31.0457 40 20C40 8.9543 31.0457 0 20 0C8.9543 0 0 8.9543 0 20C0 31.0457 8.9543 40 20 40Z" fill="#ECE5DD"/>
<path d="M20 40C31.0457 40 40 31.0457 40 20C40 8.9543 31.0457 0 20 0C8.9543 0 0 8.9543 0 20C0 31.0457 8.9543 40 20 40Z" fill="#ECE5DD"/>
<path d="M39.9999 20C39.9999 14.4257 37.7186 9.38489 34.0397 5.75793L22.6086 14.7825L19.1303 15.6521L7.82599 7.82606L4.9238 6.85864C4.53755 7.30137 4.17107 7.76168 3.82458 8.23739L28.8402 37.9435C35.4515 34.68 39.9999 27.8717 39.9999 20Z" fill="#D9CBBD"/>
<path d="M39.9999 20C39.9999 15.5708 38.5591 11.4789 36.1221 8.16467L34.739 9.24999V33.5176C38.0054 29.9579 39.9999 25.2121 39.9999 20Z" fill="#AC2201"/>
<path d="M32.5099 4.3963L20.4942 13.4847C20.2018 13.7058 19.7981 13.7058 19.5058 13.4847L7.49009 4.3963C6.10595 5.5074 4.87298 6.7988 3.82642 8.23497L19.4943 20.528C19.7912 20.761 20.2088 20.761 20.5056 20.528L36.1735 8.23497C35.127 6.79872 33.8941 5.50747 32.5099 4.3963Z" fill="#CD2900"/>
<path d="M5.26086 33.5176V9.24999L3.87773 8.16467C1.44078 11.4789 0 15.5708 0 20C0 25.2121 1.99445 29.9579 5.26086 33.5176Z" fill="#AC2201"/>
</svg>
