<svg width="40" height="40" viewBox="0 0 40 40" fill="none" xmlns="http://www.w3.org/2000/svg">
<g clip-path="url(#clip0)">
<path fill-rule="evenodd" clip-rule="evenodd" d="M14.6363 0C12.4295 0.00163099 10.6436 1.79246 10.6452 3.99918C10.6436 6.20591 12.4312 7.99674 14.6379 7.99837H18.6305V4.00082C18.6322 1.79409 16.8446 0.00326198 14.6363 0C14.6379 0 14.6379 0 14.6363 0V0ZM14.6363 10.6667H3.99242C1.78569 10.6683 -0.00187067 12.4591 -0.000239683 14.6659C-0.00350166 16.8726 1.78406 18.6634 3.99079 18.6667H14.6363C16.843 18.665 18.6305 16.8742 18.6289 14.6675C18.6305 12.4591 16.843 10.6683 14.6363 10.6667V10.6667Z" fill="#36C5F0"/>
<path fill-rule="evenodd" clip-rule="evenodd" d="M39.9202 14.6659C39.9218 12.4591 38.1342 10.6683 35.9275 10.6667C33.7207 10.6683 31.9332 12.4591 31.9348 14.6659V18.6667H35.9275C38.1342 18.665 39.9218 16.8742 39.9202 14.6659ZM29.2746 14.6659V3.99918C29.2763 1.79409 27.4903 0.00326198 25.2836 0C23.0768 0.00163099 21.2893 1.79246 21.2909 3.99918V14.6659C21.2876 16.8726 23.0752 18.6634 25.282 18.6667C27.4887 18.665 29.2763 16.8742 29.2746 14.6659Z" fill="#2EB67D"/>
<path fill-rule="evenodd" clip-rule="evenodd" d="M25.2825 40.0002C27.4892 39.9986 29.2767 38.2077 29.2751 36.001C29.2767 33.7943 27.4892 32.0034 25.2825 32.0018H21.2898V36.001C21.2882 38.2061 23.0757 39.9969 25.2825 40.0002ZM25.2825 29.3318H35.9279C38.1346 29.3302 39.9222 27.5394 39.9206 25.3326C39.9238 23.1259 38.1363 21.335 35.9295 21.3318H25.2841C23.0774 21.3334 21.2898 23.1243 21.2914 25.331C21.2898 27.5394 23.0757 29.3302 25.2825 29.3318V29.3318Z" fill="#ECB22E"/>
<path fill-rule="evenodd" clip-rule="evenodd" d="M0.000489396 25.3325C-0.00114159 27.5392 1.78642 29.33 3.99315 29.3317C6.19988 29.33 7.98744 27.5392 7.98581 25.3325V21.3333H3.99315C1.78642 21.3349 -0.00114159 23.1257 0.000489396 25.3325ZM10.646 25.3325V35.9992C10.6427 38.2059 12.4303 39.9968 14.637 40C16.8437 39.9984 18.6313 38.2076 18.6296 36.0008V25.3357C18.6329 23.129 16.8453 21.3381 14.6386 21.3349C12.4303 21.3349 10.6443 23.1257 10.646 25.3325C10.646 25.3341 10.646 25.3325 10.646 25.3325Z" fill="#E01E5A"/>
</g>
<defs>
<clipPath id="clip0">
<rect width="39.9201" height="40" fill="white"/>
</clipPath>
</defs>
</svg>
