<svg width="40" height="40" viewBox="0 0 40 40" fill="none" xmlns="http://www.w3.org/2000/svg">
<g clip-path="url(#clip0)">
<path fill-rule="evenodd" clip-rule="evenodd" d="M23.5516 0.0779305C23.2635 0.0779305 22.9942 0.139349 22.7485 0.219666C23.2753 0.574003 23.5635 1.03464 23.7099 1.56142C23.7194 1.63229 23.7406 1.68426 23.7501 1.75749C23.7595 1.83072 23.7737 1.88033 23.7737 1.94647C23.8162 2.85594 23.5375 2.96933 23.339 3.50556C23.039 4.1977 23.1217 4.94181 23.4808 5.53709C23.5137 5.61679 23.5548 5.6928 23.6036 5.76387C23.2115 3.15122 25.3918 2.75672 25.7934 1.94175C25.8241 1.22835 25.2359 0.753534 24.7706 0.422819C24.3265 0.153523 23.9202 0.0684814 23.5516 0.0684814V0.0779305ZM26.8352 0.668493C26.7927 0.904718 26.8257 0.8433 26.8116 0.968499L26.7879 1.2378L26.7171 1.48583C26.6934 1.56851 26.6651 1.65119 26.6344 1.73387L26.521 1.97009C26.4903 2.01261 26.469 2.05277 26.4383 2.09293L26.3769 2.18742L26.221 2.39294C26.1596 2.45436 26.1076 2.52759 26.032 2.58192C25.9564 2.63625 25.9092 2.70475 25.8359 2.75672C25.6186 2.92208 25.3706 3.04492 25.1438 3.20083C25.0729 3.2528 25.0021 3.29532 24.9383 3.35674C24.8684 3.4062 24.8028 3.46152 24.7422 3.52209C24.6714 3.58351 24.6194 3.64493 24.5532 3.71816C24.4871 3.79139 24.4399 3.85281 24.3973 3.92368L24.2556 4.141L24.1422 4.37723L24.0595 4.61345L23.9887 4.8733C23.9792 4.91582 23.9792 4.96779 23.965 5.00795C23.9509 5.04811 23.9556 5.09063 23.9414 5.13079L23.932 5.39063C23.932 5.45205 23.932 5.51347 23.9414 5.57961C23.9414 5.66229 23.9509 5.74497 23.9721 5.83946C23.9934 5.93395 24.0028 6.00482 24.0241 6.0875L24.1068 6.33553C24.1304 6.3875 24.1587 6.43947 24.1776 6.47727L21.8012 5.55599L20.6036 5.2489L19.9516 5.09299C19.3298 4.96905 18.7022 4.87603 18.0712 4.81424C18.0476 4.81424 18.0405 4.80479 18.0193 4.80479L16.1696 4.71031L14.816 4.76227C14.1853 4.8048 13.5546 4.88511 12.9262 4.98905L12.4609 5.07173L11.5301 5.27725L11.0648 5.40008L10.6207 5.59615L10.2805 5.75206C10.2569 5.76151 10.238 5.76151 10.2285 5.77568L9.94035 5.91742C9.90964 5.92686 9.88838 5.94104 9.86949 5.94812L9.54822 6.11348C9.47735 6.14419 9.40649 6.18435 9.3427 6.21742C9.31199 6.24104 9.27184 6.25758 9.24821 6.26939L8.97892 6.4253C8.89337 6.47256 8.81056 6.52462 8.73088 6.58121L8.52537 6.72294L8.29859 6.8883L8.12378 7.03004C8.10016 7.03949 8.08126 7.06075 8.06236 7.07256L7.90646 7.2072C7.89701 7.23083 7.87575 7.23791 7.86394 7.24973L7.67496 7.42453L7.46944 7.6206L7.29463 7.80958C7.27101 7.8332 7.24266 7.8521 7.22377 7.871C7.16826 7.93574 7.10994 7.998 7.04896 8.05762C7.03951 8.08124 7.01825 8.08832 7.00644 8.10958L6.77021 8.35762L6.21272 8.89385C6.02374 9.05921 5.83004 9.21512 5.63397 9.3474L5.01506 9.73954C4.80954 9.85293 4.58985 9.95687 4.36308 10.0466C4.14356 10.14 3.91967 10.2228 3.6922 10.2947C3.25754 10.3892 2.81344 10.564 2.43076 10.5947C2.34808 10.5947 2.25595 10.6183 2.17091 10.6254L1.91106 10.6868L1.66303 10.7813C1.57845 10.8148 1.49566 10.8526 1.41499 10.8947C1.34412 10.9466 1.25908 10.9892 1.18821 11.0364C1.11735 11.0837 1.04648 11.1498 0.982697 11.2112C0.918916 11.2726 0.840962 11.3341 0.777181 11.4002L0.602374 11.6057C0.550405 11.6884 0.488986 11.7616 0.446466 11.8419C0.392402 11.9177 0.344228 11.9974 0.302369 12.0805L0.188981 12.3498L0.0944905 12.6191L0.0425209 12.8672C0.0118117 12.99 0.0118117 13.1152 4.23982e-07 13.1743C-0.0118108 13.2333 4.23982e-07 13.3113 4.23982e-07 13.3845C-0.00200634 13.4296 0.00116404 13.4748 0.00944943 13.5191C0.0188984 13.59 0.0330719 13.6538 0.0519699 13.7152L0.122837 13.9042C0.153547 13.9751 0.193705 14.0388 0.236226 14.1003L0.370874 14.2892L0.54568 14.4546C0.606234 14.5152 0.671826 14.5705 0.741747 14.62C0.989784 14.8373 1.04884 14.9081 1.37247 15.0735C1.42444 15.1042 1.47641 15.1255 1.53783 15.1562C1.56854 15.1869 1.56854 15.1963 1.58035 15.2176C1.5898 15.3003 1.61106 15.383 1.63232 15.4656C1.65204 15.5507 1.67972 15.6338 1.71499 15.7137L1.79767 15.9027C1.80712 15.9263 1.8213 15.9452 1.82838 15.9546L1.95122 16.1814L2.10713 16.3987L2.28194 16.5948C2.34335 16.6562 2.40477 16.7082 2.478 16.7696L2.68352 16.9255C2.75439 16.9775 2.82525 17.02 2.91029 17.0602C2.98672 17.1042 3.06649 17.1421 3.14888 17.1735C3.2103 17.2043 3.28353 17.2255 3.3544 17.2444C3.42526 17.2633 3.48905 17.2869 3.5292 17.2964C3.49849 17.8539 3.48668 18.383 3.57172 18.5673C3.66621 18.7728 4.11977 18.1421 4.57332 17.4216C4.5119 18.135 4.46938 18.9712 4.57332 19.2169C4.67726 19.4626 5.30562 18.6688 5.84421 17.7806C13.1672 16.0869 19.8524 21.1492 20.5539 28.2974C20.4193 27.1824 19.0468 26.5611 18.4161 26.7147C18.109 27.48 17.5799 28.4627 16.7318 29.0698C16.8027 28.3848 16.772 27.6856 16.6279 27.0029C16.3968 27.9539 15.9597 28.8425 15.3475 29.6061C14.3672 29.6769 13.3869 29.2045 12.8672 28.4911C12.8247 28.4604 12.8152 28.3966 12.7845 28.3564L12.7018 28.1391C12.6711 28.0682 12.6499 27.9974 12.6404 27.9218C12.631 27.8462 12.631 27.7801 12.631 27.695V27.5391C12.6404 27.4682 12.6617 27.3974 12.6829 27.3218L12.7538 27.1044C12.7963 27.0336 12.8247 26.9627 12.8766 26.8871C13.0514 26.4147 13.0514 25.9895 12.7349 25.7532C12.6735 25.7107 12.6121 25.6824 12.5388 25.6493C12.4963 25.6399 12.4443 25.6186 12.4042 25.6068L12.3215 25.5761L12.1042 25.5241C12.0335 25.5037 11.9604 25.4933 11.8868 25.4934C11.8118 25.4812 11.7361 25.4741 11.6601 25.4721C11.6081 25.4721 11.5561 25.4816 11.5042 25.4816C11.4275 25.4809 11.3511 25.4913 11.2774 25.5123L11.0601 25.5524L10.8427 25.6233L10.6372 25.7178L10.4412 25.8217C8.03165 27.3926 9.47263 31.0659 11.112 32.1337C10.4931 32.2471 9.86004 32.3817 9.68759 32.5164C10.1128 32.8046 10.5758 33.0361 11.0624 33.2298L12.7349 33.7022C13.5924 33.8912 14.4593 33.9503 15.3381 33.8983C17.5703 33.7348 19.6798 32.8143 21.3177 31.2889C22.9556 29.7636 24.0237 27.7248 24.3454 25.5099L24.4068 25.7792L24.5013 26.358L24.5438 26.6367L24.5674 26.9438L24.591 27.284V27.4493C24.591 27.5013 24.6005 27.5627 24.6005 27.6147C24.6005 27.6667 24.591 27.7375 24.591 27.8037V27.9454C24.591 28.0163 24.5816 28.0801 24.5816 28.1509C24.5816 28.1911 24.5816 28.2336 24.5721 28.2856L24.5627 28.5123C24.5532 28.5431 24.5532 28.5738 24.5532 28.6068L24.5225 28.8431C24.5225 28.8738 24.5225 28.9045 24.5131 28.9376L24.4729 29.2376V29.2612L24.4115 29.5494L24.3501 29.8565L24.2674 30.1777L24.1847 30.499L24.0808 30.8297L23.854 31.4297L23.7312 31.7297L23.5894 32.0179C23.58 32.0486 23.5658 32.0699 23.5587 32.0888C22.8666 33.4731 21.8744 34.6637 20.6343 35.5897C20.5516 35.6416 20.4689 35.703 20.3862 35.7645C20.3626 35.7881 20.3343 35.7952 20.3154 35.8164L20.0886 35.9723L20.1193 36.0338H20.1287L20.5634 35.9723H20.5728L21.376 35.8306C21.4469 35.8212 21.5319 35.7999 21.6028 35.7786L21.7445 35.7479L21.9619 35.7078L22.1508 35.6558C23.1831 35.4078 24.1824 35.0652 25.1462 34.6637C23.5044 36.9078 21.3028 38.7126 18.7303 39.9008C19.9185 39.8181 21.1067 39.622 22.25 39.2913C26.4123 38.0629 29.9156 35.2637 32.0132 31.4911C31.5879 33.883 30.6393 36.1513 29.2352 38.1338C30.2368 37.4724 31.1557 36.7094 31.9943 35.8424C34.3064 33.4282 35.8241 30.3641 36.3432 27.0619C36.6976 28.6919 36.7968 30.3785 36.6432 32.0416C44.1009 21.6382 37.2622 10.8522 34.3991 8.01273C34.3897 7.98911 34.3755 7.98202 34.3755 7.96076C34.3519 8.0836 34.3448 8.2088 34.3353 8.33164C34.3046 8.56786 34.2739 8.797 34.2314 9.02378C34.1889 9.25055 34.118 9.47733 34.0566 9.70883C33.9952 9.94033 33.9007 10.1529 33.8085 10.3703C33.7164 10.5876 33.6125 10.7955 33.5014 11.001C33.3876 11.203 33.2638 11.3993 33.1306 11.5892C32.9959 11.7852 32.8518 11.9719 32.7054 12.1467C32.5512 12.3265 32.3888 12.4991 32.2187 12.664C32.1148 12.7585 32.0227 12.8388 31.9187 12.9239L31.6825 13.1294C31.498 13.2757 31.3047 13.4106 31.1038 13.5333C30.9065 13.6606 30.7031 13.778 30.4943 13.8853C30.277 13.9892 30.0596 14.0814 29.8423 14.1735C29.6223 14.2567 29.3984 14.3293 29.1714 14.3908C28.9447 14.4522 28.7061 14.5042 28.4793 14.5467C28.2525 14.5892 28.0069 14.6081 27.7777 14.6294C27.6124 14.6388 27.447 14.653 27.3053 14.653C27.069 14.653 26.8328 14.6294 26.6037 14.6105C26.3745 14.5916 26.1312 14.5585 25.8997 14.5066C25.6653 14.4642 25.434 14.4057 25.2076 14.3318H25.1981C25.4249 14.3081 25.6517 14.2892 25.8832 14.2491C26.1147 14.2089 26.3486 14.1546 26.5753 14.0932C26.8021 14.0317 27.0289 13.9585 27.2462 13.8758C27.4635 13.7932 27.6903 13.6869 27.8982 13.5876C28.1099 13.4844 28.3165 13.3709 28.5171 13.2475C28.7132 13.1128 28.9092 12.9782 29.0958 12.8341C29.2809 12.6901 29.4569 12.5346 29.6226 12.3687C29.7974 12.2128 29.9533 12.038 30.1093 11.8632C30.2652 11.6884 30.4093 11.4923 30.5439 11.3057C30.5675 11.275 30.5864 11.2348 30.6053 11.2018L30.9053 10.7293C31.0187 10.5238 31.1227 10.3159 31.2124 10.0986C31.3022 9.88127 31.3872 9.66395 31.4605 9.43717C31.5337 9.21039 31.5833 8.99307 31.6353 8.76629C31.6872 8.53951 31.7179 8.30093 31.7392 8.07415C31.7605 7.84737 31.7794 7.6017 31.7794 7.37256C31.7794 7.2072 31.7699 7.04185 31.7557 6.90011C31.7321 6.66389 31.7038 6.43475 31.6731 6.20797C31.632 5.97495 31.5799 5.74398 31.5172 5.51583C31.4463 5.29851 31.3754 5.07173 31.2904 4.8544C31.2053 4.63708 31.1014 4.41975 31.0022 4.21659C30.903 4.01344 30.7754 3.8032 30.6478 3.60713C30.5203 3.41107 30.3786 3.22445 30.2345 3.04019L29.762 2.51341C29.6747 2.42501 29.5849 2.33914 29.4927 2.25593C29.0298 1.89617 28.5506 1.558 28.0565 1.24252C27.9856 1.20236 27.9218 1.17165 27.8509 1.13858C27.5108 0.921254 27.1895 0.807866 26.8706 0.703927L26.8352 0.668493Z" fill="#EA2845"/>
</g>
<defs>
<clipPath id="clip0">
<rect width="40" height="40" fill="white"/>
</clipPath>
</defs>
</svg>
