<svg width="40" height="40" viewBox="0 0 40 40" fill="none" xmlns="http://www.w3.org/2000/svg">
<path d="M38.2309 18.3125L21.687 1.76943C20.7344 0.81644 19.1892 0.81644 18.2358 1.76943L14.8008 5.20531L19.1583 9.56283C20.1711 9.22056 21.3323 9.45025 22.1393 10.2577C22.9513 11.07 23.1789 12.2412 22.828 13.2577L27.0284 17.4577C28.0449 17.1072 29.2169 17.334 30.0284 18.1468C31.1624 19.2808 31.1624 21.1183 30.0284 22.2531C28.8936 23.3876 27.056 23.3876 25.9208 22.2531C25.068 21.3995 24.8569 20.1459 25.2894 19.0952L21.3719 15.1781V25.4861C21.6482 25.623 21.9092 25.8053 22.1393 26.0354C23.2734 27.1694 23.2734 29.007 22.1393 30.1422C21.0053 31.2758 19.1666 31.2758 18.0334 30.1422C16.8993 29.0065 16.8993 27.169 18.0334 26.0354C18.3138 25.7554 18.6383 25.5435 18.9847 25.4016V14.9975C18.6383 14.8556 18.3146 14.6457 18.0334 14.3637C17.1744 13.5051 16.9678 12.2441 17.4082 11.1892L13.1125 6.89273L1.76821 18.2358C0.815219 19.1896 0.815219 20.7348 1.76821 21.6878L18.313 38.2313C19.2655 39.1843 20.8103 39.1843 21.7641 38.2313L38.2309 21.7645C39.1839 20.8115 39.1839 19.2655 38.2309 18.3125Z" fill="#F05133"/>
</svg>
