<svg width="40" height="40" viewBox="0 0 40 40" fill="none" xmlns="http://www.w3.org/2000/svg">
<g clip-path="url(#clip0)">
<path d="M20 0C8.95421 0 0 8.95419 0 19.9999C0 31.0456 8.95421 39.9998 20 39.9998C31.0457 39.9998 40 31.0456 40 19.9999C39.9999 8.95419 31.0455 0 20 0ZM14.6639 29.6689H10.2727V15.4823H14.6639V29.6689ZM12.4474 13.6244C11.0133 13.6244 9.85069 12.4524 9.85069 11.0068C9.85069 9.56099 11.0135 8.38899 12.4474 8.38899C13.8814 8.38899 15.044 9.56099 15.044 11.0068C15.0441 12.4524 13.8814 13.6244 12.4474 13.6244V13.6244ZM31.1199 29.6689H26.75V22.2221C26.75 20.1797 25.9742 19.0396 24.3592 19.0396C22.6015 19.0396 21.6833 20.227 21.6833 22.2221V29.6689H17.4716V15.4823H21.6833V17.393C21.6833 17.393 22.9501 15.0495 25.9583 15.0495C28.9665 15.0495 31.12 16.8863 31.12 20.6861L31.1199 29.6689V29.6689Z" fill="url(#paint0_linear)"/>
</g>
<defs>
<linearGradient id="paint0_linear" x1="5.85785" y1="5.85783" x2="34.142" y2="34.1421" gradientUnits="userSpaceOnUse">
<stop stop-color="#2489BE"/>
<stop offset="1" stop-color="#0575B3"/>
</linearGradient>
<clipPath id="clip0">
<rect width="40" height="40" fill="white"/>
</clipPath>
</defs>
</svg>
