<svg width="36" height="40" viewBox="0 0 36 40" fill="none" xmlns="http://www.w3.org/2000/svg">
<g clip-path="url(#clip0)">
<path d="M35.5224 11.7656C35.5221 11.0948 35.3786 10.5021 35.0882 9.99337C34.803 9.49314 34.3759 9.07388 33.8029 8.74238C29.0737 6.0178 24.3398 3.30154 19.6121 0.574174C18.3375 -0.16103 17.1018 -0.134227 15.8366 0.611532C13.9542 1.72073 4.5298 7.1156 1.72143 8.74086C0.564869 9.40982 0.0020849 10.4336 0.00180691 11.7643C0 17.2436 0.00180691 22.7228 0 28.2022C0.000277987 28.8583 0.137743 29.4395 0.415312 29.9405C0.700666 30.4559 1.13377 30.8867 1.7199 31.2257C4.52841 32.8509 13.9541 38.2454 15.8361 39.3549C17.1018 40.1011 18.3375 40.1277 19.6125 39.3922C24.3404 36.6647 29.0745 33.9486 33.8045 31.224C34.3906 30.8852 34.8237 30.4541 35.1091 29.9392C35.3862 29.4381 35.5239 28.8569 35.5242 28.2007C35.5242 28.2007 35.5242 17.245 35.5224 11.7656" fill="#5C8DBC"/>
<path d="M17.8164 19.9298L0.415283 29.9405C0.700637 30.4558 1.13374 30.8866 1.71988 31.2256C4.52838 32.8509 13.9541 38.2453 15.8361 39.3548C17.1017 40.101 18.3375 40.1277 19.6125 39.3922C24.3404 36.6647 29.0745 33.9485 33.8044 31.224C34.3906 30.8851 34.8237 30.454 35.109 29.9391L17.8164 19.9298" fill="#1A4674"/>
<path d="M12.6624 22.8951C13.6749 24.6613 15.5784 25.8525 17.762 25.8525C19.9591 25.8525 21.8734 24.6461 22.8809 22.861L17.8164 19.9298L12.6624 22.8951" fill="#1A4674"/>
<path d="M35.5225 11.7655C35.5222 11.0947 35.3786 10.502 35.0882 9.99329L17.8165 19.9298L35.1091 29.9391C35.3862 29.438 35.524 28.8568 35.5243 28.2006C35.5243 28.2006 35.5243 17.2449 35.5225 11.7655" fill="#1B598E"/>
<path d="M34.5716 20.6453H33.2203V21.9957H31.8687V20.6453H30.5176V19.2953H31.8687V17.9452H33.2203V19.2953H34.5716V20.6453ZM29.6408 20.6453H28.2896V21.9957H26.9383V20.6453H25.587V19.2953H26.9383V17.9452H28.2896V19.2953H29.6408V20.6453Z" fill="white"/>
<path d="M22.881 22.8611C21.8736 24.6462 19.9592 25.8526 17.7622 25.8526C15.5786 25.8526 13.6751 24.6613 12.6625 22.8951C12.1538 22.0088 11.8867 21.0048 11.8877 19.9832C11.8877 16.7417 14.5179 14.1139 17.7622 14.1139C19.9317 14.1139 21.8252 15.2903 22.8428 17.0385L27.9773 14.0843C25.9365 10.5644 22.1263 8.19629 17.7622 8.19629C11.2467 8.19629 5.96509 13.4735 5.96509 19.9832C5.96509 22.1188 6.53371 24.1215 7.52751 25.849C9.56321 29.3875 13.3843 31.7702 17.7622 31.7702C22.1481 31.7702 25.9751 29.3779 28.0079 25.829L22.881 22.8611Z" fill="white"/>
</g>
<defs>
<clipPath id="clip0">
<rect width="35.5823" height="40" fill="white"/>
</clipPath>
</defs>
</svg>
