<svg width="40" height="40" viewBox="0 0 40 40" fill="none" xmlns="http://www.w3.org/2000/svg">
<path d="M20 40C31.0457 40 40 31.0457 40 20C40 8.95432 31.0457 0 20 0C8.95432 0 0 8.95432 0 20C0 31.0457 8.95432 40 20 40Z" fill="#34AADF"/>
<path d="M8.3237 19.8265C8.3237 19.8265 18.3237 15.7225 21.7918 14.2774C23.1214 13.6994 27.63 11.8496 27.63 11.8496C27.63 11.8496 29.711 11.0404 29.5375 13.0057C29.4797 13.815 29.0173 16.6473 28.5549 19.7109C27.8612 24.0462 27.1098 28.7861 27.1098 28.7861C27.1098 28.7861 26.9942 30.1156 26.0115 30.3468C25.0289 30.578 23.4103 29.5376 23.1214 29.3063C22.8901 29.1329 18.7861 26.5317 17.2832 25.26C16.8786 24.9132 16.4162 24.2196 17.341 23.4104C19.4219 21.5028 21.9074 19.1329 23.4103 17.63C24.104 16.9363 24.7976 15.3179 21.9074 17.2831C17.8034 20.1155 13.7572 22.7745 13.7572 22.7745C13.7572 22.7745 12.8323 23.3525 11.0983 22.8323C9.3641 22.3121 7.34098 21.6184 7.34098 21.6184C7.34098 21.6184 5.95378 20.7514 8.3237 19.8265V19.8265Z" fill="white"/>
</svg>
