<svg width="36" height="40" viewBox="0 0 36 40" fill="none" xmlns="http://www.w3.org/2000/svg">
<g clip-path="url(#clip0)">
<path d="M35.104 20.0036C35.104 17.6782 32.1918 15.4743 27.7269 14.1077C28.7572 9.55687 28.2993 5.93628 26.2815 4.77712C25.8164 4.50521 25.2726 4.37642 24.6787 4.37642V5.97205C25.0078 5.97205 25.2726 6.03645 25.4944 6.15809C26.4675 6.71621 26.8897 8.84134 26.5605 11.5747C26.4818 12.2473 26.353 12.9556 26.1956 13.6783C24.7932 13.3349 23.2619 13.0701 21.652 12.8984C20.686 11.5747 19.6843 10.3726 18.6754 9.32074C21.008 7.15268 23.1975 5.9649 24.6859 5.9649V4.36926C22.7181 4.36926 20.1422 5.77171 17.5377 8.20451C14.9332 5.78602 12.3572 4.39788 10.3895 4.39788V5.99352C11.8707 5.99352 14.0674 7.17415 16.4 9.3279C15.3982 10.3797 14.3965 11.5747 13.4448 12.8984C11.8277 13.0701 10.2965 13.3349 8.89406 13.6855C8.72949 12.97 8.60785 12.2759 8.52199 11.6104C8.18569 8.87711 8.60069 6.75198 9.56666 6.18671C9.78132 6.05792 10.0604 6.00068 10.3895 6.00068V4.40504C9.78848 4.40504 9.24467 4.53383 8.77242 4.80574C6.76178 5.9649 6.31099 9.57833 7.34851 14.1148C2.8979 15.4886 0 17.6853 0 20.0036C0 22.3291 2.91221 24.533 7.37713 25.8996C6.34677 30.4504 6.80471 34.071 8.82251 35.2302C9.28761 35.5021 9.83141 35.6309 10.4325 35.6309C12.4002 35.6309 14.9761 34.2284 17.5806 31.7956C20.1852 34.2141 22.7611 35.6022 24.7288 35.6022C25.3298 35.6022 25.8736 35.4734 26.3459 35.2015C28.3565 34.0424 28.8073 30.4289 27.7698 25.8925C32.2061 24.5258 35.104 22.322 35.104 20.0036V20.0036ZM25.7878 15.231C25.523 16.1541 25.1939 17.1057 24.8218 18.0574C24.5284 17.485 24.2208 16.9125 23.8845 16.3401C23.5553 15.7677 23.2047 15.2096 22.8541 14.6658C23.8701 14.816 24.8504 15.0021 25.7878 15.231ZM22.5106 22.8515C21.9525 23.8174 21.3801 24.7333 20.7862 25.5848C19.7201 25.6778 18.6396 25.7279 17.552 25.7279C16.4715 25.7279 15.3911 25.6778 14.3321 25.5919C13.7382 24.7405 13.1586 23.8317 12.6005 22.8729C12.0567 21.9356 11.563 20.9839 11.1122 20.0251C11.5558 19.0663 12.0567 18.1075 12.5934 17.1701C13.1515 16.2042 13.7239 15.2883 14.3178 14.4368C15.3839 14.3438 16.4644 14.2937 17.552 14.2937C18.6325 14.2937 19.7129 14.3438 20.7719 14.4296C21.3658 15.2811 21.9454 16.1899 22.5035 17.1487C23.0473 18.086 23.541 19.0377 23.9918 19.9965C23.541 20.9553 23.0473 21.9141 22.5106 22.8515ZM24.8218 21.9213C25.2082 22.8801 25.5373 23.8389 25.8092 24.7691C24.8719 24.998 23.8845 25.1912 22.8612 25.3415C23.2119 24.7905 23.5625 24.2253 23.8916 23.6457C24.2208 23.0733 24.5284 22.4937 24.8218 21.9213ZM17.5663 29.556C16.9009 28.8691 16.2354 28.1035 15.5771 27.2663C16.2211 27.2949 16.8794 27.3164 17.5448 27.3164C18.2174 27.3164 18.8829 27.3021 19.534 27.2663C18.89 28.1035 18.2246 28.8691 17.5663 29.556ZM12.2428 25.3415C11.2267 25.1912 10.2464 25.0052 9.30907 24.7762C9.57382 23.8532 9.90296 22.9015 10.275 21.9499C10.5684 22.5223 10.8761 23.0947 11.2124 23.6672C11.5487 24.2396 11.8921 24.7977 12.2428 25.3415ZM17.5305 10.4513C18.196 11.1382 18.8614 11.9038 19.5197 12.741C18.8757 12.7124 18.2174 12.6909 17.552 12.6909C16.8794 12.6909 16.214 12.7052 15.5628 12.741C16.2068 11.9038 16.8722 11.1382 17.5305 10.4513ZM12.2356 14.6658C11.885 15.2167 11.5344 15.782 11.2052 16.3616C10.8761 16.934 10.5684 17.5064 10.275 18.0789C9.88865 17.12 9.55951 16.1612 9.28761 15.231C10.225 15.0092 11.2124 14.816 12.2356 14.6658V14.6658ZM5.76003 23.6242C3.22705 22.5438 1.58848 21.127 1.58848 20.0036C1.58848 18.8803 3.22705 17.4563 5.76003 16.383C6.37539 16.1183 7.04799 15.8822 7.74206 15.6604C8.14991 17.0628 8.68656 18.5225 9.352 20.0179C8.69371 21.5063 8.16422 22.9588 7.76352 24.3541C7.05515 24.1323 6.38255 23.889 5.76003 23.6242ZM9.6096 33.8492C8.63647 33.2911 8.21431 31.1659 8.54345 28.4326C8.62216 27.76 8.75096 27.0516 8.90837 26.3289C10.3108 26.6724 11.8421 26.9371 13.452 27.1089C14.418 28.4326 15.4197 29.6347 16.4286 30.6865C14.096 32.8546 11.9065 34.0424 10.4181 34.0424C10.0962 34.0352 9.82425 33.9708 9.6096 33.8492V33.8492ZM26.582 28.3968C26.9183 31.1302 26.5033 33.2553 25.5373 33.8206C25.3227 33.9494 25.0436 34.0066 24.7145 34.0066C23.2333 34.0066 21.0366 32.826 18.704 30.6722C19.7058 29.6204 20.7075 28.4254 21.6592 27.1017C23.2763 26.93 24.8075 26.6652 26.2099 26.3146C26.3745 27.0373 26.5033 27.7314 26.582 28.3968V28.3968ZM29.3368 23.6242C28.7215 23.889 28.0489 24.1251 27.3548 24.3469C26.9469 22.9445 26.4103 21.4848 25.7448 19.9893C26.4031 18.501 26.9326 17.0485 27.3333 15.6532C28.0417 15.875 28.7143 16.1183 29.344 16.383C31.8769 17.4635 33.5155 18.8803 33.5155 20.0036C33.5084 21.127 31.8698 22.5509 29.3368 23.6242V23.6242Z" fill="#61DAFB"/>
<path d="M17.5449 23.2736C19.3508 23.2736 20.8149 21.8096 20.8149 20.0036C20.8149 18.1977 19.3508 16.7336 17.5449 16.7336C15.7389 16.7336 14.2749 18.1977 14.2749 20.0036C14.2749 21.8096 15.7389 23.2736 17.5449 23.2736Z" fill="#61DAFB"/>
</g>
<defs>
<clipPath id="clip0">
<rect width="35.104" height="40" fill="white"/>
</clipPath>
</defs>
</svg>
