<svg width="54" height="40" viewBox="0 0 54 40" fill="none" xmlns="http://www.w3.org/2000/svg">
<g clip-path="url(#clip0)">
<path d="M45.8958 22.9792C44.0312 22.9898 42.4167 23.4376 41.0625 24.1044C40.5625 23.1148 40.0625 22.2501 39.9793 21.6044C39.8855 20.8544 39.7709 20.3959 39.8855 19.5002C40 18.6042 40.5208 17.3334 40.5208 17.2292C40.5103 17.1355 40.4061 16.6772 39.3333 16.6667C38.2605 16.6563 37.3333 16.8751 37.2292 17.1563C37.125 17.4376 36.9167 18.0834 36.7813 18.7501C36.5938 19.7292 34.6354 23.198 33.5208 25.0209C33.1563 24.3126 32.8438 23.6876 32.7812 23.1875C32.6875 22.4376 32.5728 21.9791 32.6875 21.0834C32.8021 20.1875 33.3229 18.9167 33.3229 18.8126C33.3125 18.7188 33.2083 18.2605 32.1355 18.2501C31.0625 18.2397 30.1355 18.4584 30.0314 18.7397C29.9272 19.0209 29.8126 19.6876 29.5835 20.3334C29.3646 20.9792 26.7604 26.7709 26.0834 28.2813C25.7396 29.0522 25.4376 29.6667 25.2188 30.0834C25 30.5001 25.2084 30.1147 25.1875 30.1563C25 30.5105 24.8959 30.7084 24.8959 30.7084V30.7189C24.75 30.9794 24.5938 31.2292 24.5208 31.2292C24.4687 31.2292 24.3645 30.5313 24.5416 29.5731C24.927 27.5626 25.8645 24.4273 25.8542 24.3127C25.8542 24.2606 26.0312 23.7084 25.2499 23.4273C24.4895 23.146 24.2188 23.6148 24.1562 23.6148C24.0937 23.6148 24.0416 23.7814 24.0416 23.7814C24.0416 23.7814 24.8853 20.2503 22.427 20.2503C20.8853 20.2503 18.7604 21.9274 17.7083 23.4586C17.0416 23.8232 15.6249 24.5939 14.1249 25.417C13.552 25.7295 12.9583 26.0628 12.3958 26.3649L12.2813 26.2397C9.30215 23.0626 3.79174 20.8126 4.02091 16.5417C4.10424 14.9897 4.64591 10.8959 14.6043 5.93758C22.7606 1.87508 29.2918 2.98967 30.4271 5.46883C32.0417 9.0105 26.9375 15.5938 18.4585 16.5417C15.2293 16.9063 13.5313 15.6563 13.1043 15.1876C12.6564 14.698 12.5939 14.6772 12.4272 14.7709C12.1564 14.9167 12.3231 15.3542 12.4272 15.6147C12.6772 16.2709 13.7189 17.4376 15.4897 18.0209C17.0417 18.5313 20.8335 18.8126 25.4168 17.0417C30.5522 15.0522 34.5626 9.53133 33.3855 4.91675C32.1876 0.218833 24.396 -1.32283 17.0314 1.29175C12.6459 2.85425 7.8959 5.29175 4.47924 8.48967C0.416751 12.2813 -0.229081 15.5938 0.0417521 16.9688C0.989771 21.8751 7.75007 25.073 10.4584 27.4376C10.323 27.5104 10.198 27.5833 10.0834 27.6459C8.72923 28.3125 3.57299 31.0105 2.28133 33.8646C0.823 37.0937 2.5105 39.4167 3.63549 39.7292C7.11465 40.698 10.6771 38.9584 12.6042 36.0938C14.5208 33.2292 14.2917 29.5105 13.4063 27.8126L13.375 27.7501L14.4374 27.1251C15.1251 26.7188 15.8021 26.3438 16.3958 26.0208C16.0625 26.9271 15.8229 28 15.698 29.5625C15.5521 31.3959 16.3021 33.7708 17.2917 34.7083C17.7292 35.1145 18.25 35.125 18.573 35.125C19.7188 35.125 20.2396 34.177 20.8125 33.0416C21.5209 31.6562 22.1459 30.0521 22.1459 30.0521C22.1459 30.0521 21.3646 34.3958 23.5 34.3958C24.2813 34.3958 25.0625 33.3854 25.4167 32.8646V32.875C25.4167 32.875 25.4375 32.8437 25.4792 32.7708C25.5229 32.7062 25.5646 32.6402 25.6042 32.573V32.5522C25.9167 32.0105 26.6146 30.7709 27.6563 28.7188C28.9999 26.073 30.2917 22.7605 30.2917 22.7605C30.2917 22.7605 30.4167 23.573 30.8021 24.9063C31.0312 25.6981 31.5312 26.5626 31.9166 27.4063C31.6041 27.8438 31.4166 28.0939 31.4166 28.0939L31.427 28.1044C31.1771 28.4377 30.8957 28.792 30.6042 29.146C29.5417 30.4169 28.2709 31.8649 28.1042 32.2815C27.9063 32.771 27.9479 33.1356 28.3334 33.4274C28.6146 33.6357 29.1146 33.6773 29.6459 33.6357C30.6042 33.5731 31.2708 33.3336 31.6042 33.1877C32.125 33.0002 32.7188 32.7189 33.2917 32.3023C34.3333 31.5315 34.9688 30.4378 34.9063 28.9795C34.875 28.1774 34.6146 27.3857 34.2917 26.6357C34.3854 26.5003 34.4793 26.3648 34.5729 26.219C36.2188 23.8127 37.4896 21.167 37.4896 21.167C37.4896 21.167 37.6146 21.9795 38 23.3128C38.1978 23.9899 38.5937 24.7296 38.9479 25.4587C37.4062 26.7191 36.4375 28.1775 36.1042 29.1358C35.4896 30.9066 35.9688 31.7087 36.875 31.8962C37.2811 31.9796 37.8646 31.7921 38.302 31.6046C38.8436 31.4275 39.4999 31.1253 40.1042 30.6775C41.1458 29.9066 42.1458 28.8337 42.0937 27.3858C42.0625 26.7191 41.8854 26.0629 41.6458 25.4379C42.9583 24.8962 44.6561 24.5837 46.8125 24.8441C51.4479 25.3858 52.3645 28.2816 52.1876 29.49C52.0105 30.6984 51.0417 31.365 50.7187 31.5733C50.3958 31.7712 50.2916 31.8442 50.3229 31.99C50.3646 32.2088 50.5104 32.1983 50.7916 32.1568C51.1771 32.0941 53.2291 31.1672 53.3125 28.9381C53.4375 26.0731 50.7187 22.9481 45.8958 22.9792V22.9792ZM10.1459 35.0313C8.61465 36.7084 6.4584 37.3438 5.54174 36.8022C4.55216 36.2292 4.93747 33.7605 6.82299 31.9792C7.96882 30.8959 9.4584 29.8959 10.4376 29.2813C10.6563 29.1459 10.9896 28.9481 11.3855 28.7084C11.448 28.6669 11.4896 28.6459 11.4896 28.6459C11.5626 28.6042 11.6459 28.5522 11.7292 28.5001C12.4271 31.0418 11.7605 33.2709 10.1459 35.0313V35.0313ZM21.3438 27.4168C20.8125 28.7188 19.6875 32.0626 19.0105 31.8751C18.427 31.7188 18.073 29.1876 18.8958 26.6876C19.3124 25.4271 20.1979 23.9272 20.7187 23.3437C21.5625 22.4062 22.4791 22.0937 22.7084 22.4791C22.9792 22.9792 21.6771 26.6043 21.3438 27.4168ZM30.5833 31.8334C30.3542 31.9481 30.1458 32.0313 30.0521 31.9689C29.9792 31.9273 30.1457 31.771 30.1457 31.771C30.1457 31.771 31.302 30.5314 31.7603 29.9585C32.0207 29.6253 32.3332 29.2399 32.6666 28.8023V28.9273C32.6667 30.4272 31.2292 31.4272 30.5833 31.8334ZM37.7082 30.2084C37.5416 30.0834 37.5625 29.698 38.1249 28.4897C38.3437 28.0105 38.8436 27.2084 39.7082 26.448C39.8124 26.7605 39.875 27.0625 39.8645 27.3438C39.8542 29.2188 38.5208 29.9167 37.7082 30.2084Z" fill="#CF649A"/>
</g>
<defs>
<clipPath id="clip0">
<rect width="53.3333" height="40" fill="white"/>
</clipPath>
</defs>
</svg>
