<svg width="30" height="40" viewBox="0 0 30 40" fill="none" xmlns="http://www.w3.org/2000/svg">
<path d="M2.29656 23.2519C2.34764 24.3044 3.40016 23.814 3.8702 23.4869C4.31982 23.1702 4.45267 23.4359 4.4935 22.8227C4.52417 22.414 4.565 22.0155 4.54458 21.6068C3.85994 21.5454 3.12421 21.7089 2.56215 22.1176C2.26588 22.322 1.7345 22.9965 2.29645 23.2519H2.29656ZM23.2751 36.1886C24.0823 36.6893 25.5641 38.2017 24.348 38.9374C23.1831 40.0002 22.5292 37.7622 21.5073 37.4557C21.9466 36.8528 22.4984 36.301 23.2751 36.1886ZM8.82614 37.895C7.8758 38.0382 7.34441 38.8965 6.54744 39.3359C5.80144 39.7753 5.51534 39.1928 5.45399 39.0703C5.34166 39.0192 5.35182 39.1213 5.16789 38.9374C4.47308 37.844 5.8832 37.047 6.61894 36.5053C7.64078 36.301 8.2846 37.19 8.82614 37.895ZM27.761 23.1191C27.7099 24.1716 26.6574 23.6811 26.1874 23.3541C25.7377 23.0373 25.6049 23.303 25.5641 22.6899C25.5333 22.2812 25.4925 21.8826 25.513 21.4739C26.1975 21.4126 26.9333 21.5761 27.4953 21.9848C27.7815 22.1891 28.3231 22.8636 27.761 23.1191" fill="#F6D2A2"/>
<path d="M24.9714 10.2846C28.6194 8.9971 25.7685 4.00035 22.5904 6.20744C20.5059 4.4192 17.6346 4.09216 14.6201 4.09216C11.6671 4.32739 8.8569 4.86893 6.89498 6.58556C3.72709 4.54179 0.804678 9.44662 4.52416 10.6832C3.48191 14.7296 4.66717 18.8579 4.50365 22.9759C4.35039 26.675 3.37964 31.6309 5.43357 34.9519C7.18098 37.7926 10.9413 38.8043 14.0376 38.9168C17.9921 39.0598 22.7845 38.089 24.7056 34.2571C26.5449 30.6091 26.034 26.0619 25.799 22.1278C25.564 18.1528 26.0034 14.1165 24.9713 10.2845L24.9714 10.2846Z" fill="#69D7E2"/>
<path d="M28.037 22.4958C27.9349 22.2812 27.7408 22.0359 27.5568 21.9031C27.0868 21.5659 26.4838 21.382 25.8605 21.3615C25.8401 20.728 25.8197 20.0331 25.8197 19.1543V18.3573C25.8094 15.8435 25.7787 14.7399 25.6357 13.3604C25.5233 12.2773 25.3495 11.2759 25.1044 10.3358C25.9321 10.019 26.4736 9.49789 26.6883 8.8234C26.8926 8.20009 26.7904 7.49503 26.4431 6.87173C26.0854 6.25859 25.5131 5.7987 24.8489 5.61487C24.1336 5.42068 23.357 5.56378 22.611 6.06439C21.9468 5.50244 21.1805 5.07322 20.3221 4.74619C18.7995 4.18433 17.0318 3.96973 14.6304 3.96973V4.0719L14.6202 3.96973C12.0553 4.17407 10.1547 4.57261 8.58102 5.33902C7.94746 5.64554 7.38551 6.01341 6.89505 6.44262C6.1388 5.97258 5.35198 5.86015 4.62651 6.08501C3.95212 6.28936 3.36965 6.76966 3.0222 7.39296C2.67474 8.01626 2.59298 8.73158 2.828 9.34473C3.06302 9.95777 3.60457 10.4381 4.4119 10.7344C4.15647 11.7664 4.02362 12.8599 4.00321 14.0657C3.98269 15.2408 4.03378 16.1809 4.21771 18.3063C4.35056 19.8902 4.40164 20.6157 4.42216 21.4945C3.72726 21.4638 3.03245 21.6478 2.51122 22.0259C2.32729 22.1587 2.12294 22.3937 2.03103 22.6185C1.89818 22.9047 1.94927 23.1602 2.21496 23.3134C2.25579 23.8039 2.53174 24.0286 2.95069 23.9878C3.25722 23.9571 3.62508 23.7936 3.94186 23.5688C4.00879 23.5204 4.08074 23.4793 4.15647 23.4463C4.18714 23.436 4.20756 23.4257 4.23823 23.4155C4.23823 23.4155 4.29947 23.3952 4.31999 23.3849C4.35056 23.3747 4.38123 23.3644 4.40164 23.344C4.38123 23.8243 4.3404 24.325 4.24838 25.4695C4.14621 26.757 4.09512 27.4621 4.07471 28.2489C3.98269 31.1714 4.33014 33.2968 5.3724 34.9829C5.69944 35.5143 6.09798 35.9843 6.56802 36.4135C6.476 36.4748 6.08772 36.761 5.96513 36.8529C5.53592 37.1799 5.23965 37.4558 5.06588 37.7623C4.84111 38.1608 4.84111 38.5594 5.09655 38.9783L5.10681 38.9886L5.11707 38.9988C5.2294 39.1112 5.29074 39.1418 5.3725 39.1418H5.40297C5.41323 39.1624 5.42348 39.1725 5.43374 39.1929C5.46431 39.244 5.49499 39.2849 5.52566 39.3258C5.78109 39.6221 6.1387 39.6936 6.619 39.4075C6.87443 39.2747 7.05837 39.1213 7.44665 38.7944L7.46717 38.7739C8.09047 38.2426 8.39699 38.0485 8.85687 37.9769L9.02039 37.9462C9.08163 37.977 9.14298 37.9974 9.21448 38.028C10.6655 38.6105 12.3515 38.9272 14.0581 38.9886C16.2653 39.0703 18.3907 38.7944 20.1891 38.1404C20.6694 37.9667 21.1191 37.7623 21.5483 37.5375C21.814 37.6397 22.0386 37.8543 22.4679 38.355C22.4884 38.3755 22.4884 38.3755 22.4985 38.3959C22.519 38.4164 22.519 38.4266 22.5293 38.4368C22.5496 38.4675 22.5803 38.4879 22.6007 38.5185C22.938 38.917 23.1628 39.1112 23.4183 39.2236C23.7554 39.3666 24.0824 39.2951 24.4196 38.9886C25.0123 38.6207 25.0532 38.0485 24.6648 37.3944C24.3889 36.9346 23.9087 36.4543 23.4591 36.1478C23.9905 35.6267 24.4503 35.0034 24.8079 34.2982C25.7889 32.3363 26.167 30.0473 26.1466 27.1044C26.1363 26.0622 26.0954 25.1528 25.9831 23.4155V23.3645C26.0342 23.3849 26.0853 23.4156 26.1363 23.4564C26.4531 23.671 26.821 23.8447 27.1275 23.8754C27.5465 23.9163 27.8224 23.6914 27.8632 23.201C28.1187 23.0375 28.1698 22.782 28.0369 22.4959L28.037 22.4958ZM24.7877 5.82937C25.4008 5.99289 25.9322 6.4221 26.2591 6.99432C26.5862 7.56653 26.6781 8.21035 26.4942 8.78257C26.3001 9.38545 25.8095 9.86575 25.0431 10.1519C24.8903 9.60477 24.7095 9.06587 24.5016 8.53729C24.7979 8.28185 24.9409 7.96507 24.7059 7.51555C24.471 7.06582 24.0622 7.01473 23.6431 7.14758C23.3775 6.80013 23.0812 6.49361 22.7747 6.2075C23.4491 5.77829 24.144 5.6557 24.7877 5.82937V5.82937ZM3.00188 9.28328C2.78728 8.73138 2.85878 8.07751 3.18582 7.50529C3.51275 6.93297 4.04414 6.48345 4.6777 6.29952C5.33167 6.10532 6.03673 6.19724 6.73164 6.60604C6.32981 6.96721 5.97298 7.3755 5.66887 7.82207C5.13748 7.54612 4.59594 7.49503 4.28942 8.05699C3.97264 8.65998 4.3405 9.038 4.86163 9.32411C4.79013 9.49789 4.71853 9.68182 4.65728 9.86575C4.58568 10.0905 4.51418 10.3255 4.45294 10.5606C3.70694 10.2744 3.21649 9.83508 3.00188 9.28328V9.28328ZM4.23833 23.2111C4.22807 23.2111 4.16673 23.2316 4.16673 23.2417C4.13616 23.252 4.10548 23.2622 4.07481 23.2826C3.99305 23.3133 3.91129 23.3644 3.82964 23.4256C3.54343 23.6301 3.19597 23.7834 2.93028 23.8038C2.62376 23.8344 2.45008 23.7016 2.41941 23.3337C2.63402 23.2622 2.72593 23.2111 2.80769 23.0886L2.64417 22.9659C2.58293 23.0476 2.52159 23.0783 2.33765 23.1395C2.32739 23.1395 2.32739 23.1395 2.31713 23.1498C2.15372 23.0578 2.12305 22.9148 2.21506 22.7104C2.29682 22.5265 2.48076 22.3119 2.63402 22.1996C3.12447 21.8418 3.77845 21.6682 4.43242 21.709C4.43242 21.9644 4.44268 22.2199 4.43242 22.465C4.43242 22.4958 4.43242 22.5162 4.42216 22.5469C4.41201 22.6899 4.41201 22.7513 4.40175 22.8229C4.37118 23.1191 4.35066 23.1599 4.23833 23.2111V23.2111ZM7.32427 38.6308L7.30375 38.6513C6.92573 38.9782 6.74179 39.1111 6.50677 39.2439C6.11849 39.4789 5.8528 39.4279 5.66887 39.2031C5.63819 39.1723 5.61778 39.1315 5.59736 39.1008C5.58711 39.0906 5.57685 39.0702 5.56669 39.06V39.0497C5.58721 38.8658 5.65871 38.7329 5.84264 38.4468C5.8529 38.4366 5.8529 38.4366 5.8529 38.4264C5.96523 38.2629 6.01632 38.171 6.06741 38.0586L5.88347 37.9768C5.84264 38.0688 5.79156 38.1506 5.68928 38.314C5.67902 38.3243 5.67902 38.3243 5.67902 38.3345C5.49519 38.6002 5.41333 38.7636 5.3725 38.9476H5.36224H5.33157C5.31105 38.9373 5.28048 38.9169 5.23965 38.8761C4.84111 38.2425 5.15789 37.701 6.05704 37.0265C6.16948 36.9448 6.5476 36.6791 6.64978 36.5973C6.67029 36.5973 6.6906 36.5871 6.71112 36.5768C7.26282 37.047 7.90664 37.4557 8.62196 37.7929C8.62196 37.8031 8.63221 37.8134 8.64237 37.8236C8.22342 37.9257 7.89638 38.1403 7.32416 38.6308H7.32427ZM24.4812 37.517C24.7979 38.0484 24.7877 38.4775 24.3891 38.7739C24.3586 38.7125 24.338 38.641 24.2972 38.5389C24.2972 38.5286 24.2972 38.5286 24.287 38.5183C24.144 38.1301 24.052 37.9666 23.8783 37.7827L23.7352 37.9257C23.8884 38.0688 23.96 38.2221 24.103 38.5797C24.103 38.5899 24.103 38.5899 24.1133 38.6002C24.1644 38.7329 24.195 38.8147 24.2257 38.8863C23.96 39.1111 23.725 39.152 23.4797 39.0396C23.2651 38.9476 23.0608 38.7534 22.7337 38.3856C22.7133 38.3651 22.6929 38.3345 22.6725 38.3038C22.6622 38.2936 22.652 38.2833 22.6417 38.2629C22.6214 38.2425 22.6214 38.2425 22.6111 38.2221C22.233 37.7827 22.0083 37.5477 21.763 37.4147C22.3353 37.0878 22.8463 36.7199 23.3061 36.2907C23.7352 36.6075 24.2155 37.0775 24.4812 37.517V37.517ZM24.6242 34.2062C23.7454 35.974 22.1922 37.2207 20.1076 37.9768C18.3296 38.6206 16.2246 38.8863 14.048 38.8046C10.2979 38.6717 7.04842 37.3638 5.52586 34.8909C4.50402 33.2456 4.16673 31.1508 4.25874 28.2693C4.28942 27.4824 4.33025 26.7774 4.43242 25.4898C4.54485 24.0388 4.57552 23.6198 4.6062 22.9659C4.62661 22.4958 4.62661 22.0155 4.61646 21.5047C4.59594 20.6054 4.54485 19.8901 4.41201 18.2858C4.22807 16.1603 4.17699 15.2304 4.1974 14.0654C4.22817 12.5328 4.43242 11.1839 4.86163 9.90668C5.55623 7.83212 6.83371 6.43216 8.67304 5.52285C10.216 4.76681 12.086 4.37842 14.6304 4.17397C17.0114 4.17397 18.7484 4.38858 20.2506 4.94038C22.049 5.60461 23.3876 6.76945 24.3073 8.5578C24.9 10.0088 25.2475 11.5722 25.4314 13.3706C25.5744 14.7399 25.6051 15.8435 25.6153 18.347V19.1441C25.6256 20.3805 25.6459 21.2491 25.6971 22.1177C25.7175 22.4549 25.7277 22.598 25.7787 23.4052C25.8912 25.1424 25.9321 26.0416 25.9423 27.0839C25.9628 30.0166 25.5948 32.2749 24.6241 34.2062H24.6242ZM27.751 23.0169C27.7408 23.0169 27.7306 23.0067 27.7205 23.0067C27.5365 22.9454 27.4752 22.9045 27.4138 22.833L27.2503 22.9556C27.3423 23.0783 27.4342 23.1294 27.6387 23.2008C27.5978 23.5687 27.4241 23.7016 27.1278 23.6709C26.8621 23.6504 26.5146 23.487 26.2285 23.2928C26.1467 23.2316 26.0651 23.1906 25.9833 23.1498C25.973 23.1498 25.9628 23.1395 25.9525 23.1395C25.9117 22.5776 25.9117 22.4345 25.8913 22.1381L25.8606 21.5863C26.4329 21.5966 26.9949 21.7702 27.424 22.087C27.5773 22.1995 27.7613 22.4141 27.843 22.5979C27.9452 22.7717 27.9248 22.9249 27.751 23.0169V23.0169Z" fill="black"/>
<path d="M16.1694 14.6305C16.1796 15.1516 16.2818 15.7238 16.1898 16.2756C16.0467 16.5413 15.7811 16.5721 15.546 16.6742C15.219 16.6231 14.943 16.4085 14.8103 16.102C14.7285 15.4786 14.8307 14.8859 14.8614 14.2626C14.8614 14.2421 15.2497 14.2729 15.5971 14.375C15.8934 14.4669 16.1694 14.6202 16.1694 14.6305V14.6305ZM13.2775 14.6713C12.9913 15.7546 13.6556 17.5224 14.749 16.0713C14.6672 15.4581 14.7592 14.8655 14.7898 14.2626C14.8 14.2115 13.2877 14.5998 13.2775 14.6713V14.6713Z" fill="white"/>
<path d="M16.2918 15.1108C16.2713 14.8042 16.2611 14.6816 16.2611 14.5284V14.4569L16.1896 14.4364L14.9021 14.0379V13.9663L14.7693 13.9971H14.759V14.0072L13.308 14.3751L13.257 14.3854L13.2364 14.4364C13.0117 14.978 13.0628 15.7955 13.3489 16.2962C13.6759 16.8684 14.2072 16.8786 14.7488 16.2246C14.8243 16.3703 14.933 16.4961 15.0661 16.592C15.1993 16.6879 15.3531 16.7511 15.5151 16.7765H15.5459L15.5765 16.7662C15.6174 16.7457 15.6582 16.7355 15.7299 16.7049C15.7401 16.7049 15.7401 16.7049 15.7503 16.6946C16.0465 16.5925 16.1692 16.5107 16.2714 16.3166L16.2817 16.3064V16.2859C16.3122 16.102 16.3225 15.9078 16.3225 15.6933C16.3225 15.54 16.3122 15.3968 16.2918 15.1108V15.1108ZM14.6568 14.7327C14.6466 14.9167 14.6364 14.9882 14.6262 15.0903C14.6057 15.4685 14.6057 15.7546 14.6365 16.0407C14.1561 16.6538 13.7781 16.6538 13.5226 16.1939C13.2774 15.7648 13.2262 15.0392 13.4102 14.559L14.6976 14.232C14.6875 14.3648 14.6773 14.4977 14.6568 14.7327V14.7327ZM16.0875 16.2451C16.016 16.3677 15.9239 16.4291 15.6787 16.5108C15.6684 16.5108 15.6684 16.5108 15.6582 16.521C15.597 16.5415 15.5561 16.5618 15.5254 16.5721C15.2494 16.521 15.0145 16.337 14.9021 16.0816C14.8714 15.8056 14.8714 15.5195 14.8918 15.1415C14.9021 15.0392 14.9021 14.9677 14.9226 14.7838C14.9429 14.5489 14.9532 14.4058 14.9532 14.2729L16.067 14.6101C16.067 14.743 16.0773 14.8656 16.0977 15.1313C16.1181 15.4072 16.1283 15.5502 16.1283 15.7137C16.1283 15.9078 16.118 16.0816 16.0875 16.2451Z" fill="black"/>
<path d="M7.12655 10.1785C8.06663 13.8367 13.9218 12.8966 13.6971 9.22821C13.4313 4.83426 6.2273 5.68242 7.12645 10.1785" fill="white"/>
<path d="M13.7992 9.21798C13.7379 8.15522 13.2678 7.32757 12.4913 6.80644C11.7964 6.3364 10.8767 6.15247 9.96728 6.2648C9.05787 6.38759 8.21987 6.79629 7.66807 7.4401C7.05503 8.15532 6.82001 9.0954 7.03461 10.1786L7.12653 10.1581L7.03461 10.1786C7.9951 13.9389 14.024 13.0295 13.7992 9.21798ZM7.21844 10.1582C7.0141 9.12617 7.23896 8.24734 7.81117 7.58311C8.3323 6.98022 9.11912 6.58178 9.98769 6.46935C10.8563 6.35692 11.7248 6.5307 12.3789 6.98022C13.1043 7.47078 13.5438 8.23718 13.605 9.24876C13.8196 12.815 8.12795 13.6734 7.21855 10.1582H7.21844Z" fill="black"/>
<path d="M8.74116 10.6486C9.28856 10.6486 9.73232 10.1682 9.73232 9.57563C9.73232 8.98306 9.28856 8.50269 8.74116 8.50269C8.19376 8.50269 7.75 8.98306 7.75 9.57563C7.75 10.1682 8.19376 10.6486 8.74116 10.6486Z" fill="black"/>
<path d="M9.19059 10.0967C9.32038 10.0967 9.42561 9.97321 9.42561 9.82088C9.42561 9.66854 9.32038 9.54504 9.19059 9.54504C9.06079 9.54504 8.95557 9.66854 8.95557 9.82088C8.95557 9.97321 9.06079 10.0967 9.19059 10.0967Z" fill="white"/>
<path d="M15.3377 9.49469C16.0633 13.6945 22.9299 12.5806 21.9388 8.35016C21.0498 4.54891 15.0924 5.60142 15.3377 9.49469" fill="white"/>
<path d="M22.0309 8.32971C21.1214 4.41603 14.9905 5.48895 15.2357 9.5048V9.51506C15.5728 11.4974 17.3407 12.5091 19.2924 12.182C20.1813 12.0288 20.9783 11.5997 21.4995 10.9661C22.0717 10.261 22.276 9.35154 22.0309 8.32971V8.32971ZM21.3463 10.8434C20.8558 11.4362 20.1099 11.8448 19.2617 11.9879C17.4121 12.2945 15.7567 11.3441 15.4298 9.48439C15.2049 5.70356 20.9886 4.69188 21.8469 8.37054C22.0718 9.34129 21.8879 10.1894 21.3463 10.8434V10.8434Z" fill="black"/>
<path d="M17.0237 10.3837C17.5599 10.3837 17.9945 9.90329 17.9945 9.31072C17.9945 8.71816 17.5599 8.23779 17.0237 8.23779C16.4876 8.23779 16.053 8.71816 16.053 9.31072C16.053 9.90329 16.4876 10.3837 17.0237 10.3837Z" fill="black"/>
<path d="M17.4735 9.83176C17.5976 9.83176 17.6982 9.70825 17.6982 9.55589C17.6982 9.40354 17.5976 9.28003 17.4735 9.28003C17.3494 9.28003 17.2488 9.40354 17.2488 9.55589C17.2488 9.70825 17.3494 9.83176 17.4735 9.83176Z" fill="white"/>
<path d="M13.4883 12.4639C12.681 12.5354 12.027 13.4857 12.4461 14.2418C12.9977 15.2432 14.2342 14.1499 15.0006 14.2521C15.8896 14.2726 16.6151 15.1922 17.3202 14.4156C18.107 13.5572 16.983 12.7193 16.0939 12.3514L13.4883 12.4639Z" fill="#F6D2A2"/>
<path d="M17.4224 13.1485C17.1465 12.801 16.6663 12.4843 16.1451 12.2697L16.1246 12.2594H16.1042L13.4883 12.3617C12.5788 12.4434 11.925 13.4959 12.3642 14.2929C12.538 14.5995 12.773 14.7528 13.0898 14.7732C13.3247 14.7835 13.5701 14.7324 13.9481 14.5995C13.9788 14.5893 14.0196 14.579 14.0707 14.5586C14.5817 14.3849 14.786 14.3338 14.9904 14.3645H15.0006C15.2458 14.3645 15.4503 14.436 15.8385 14.5893C16.2678 14.763 16.4006 14.8141 16.6151 14.8345C16.9116 14.855 17.167 14.7528 17.4019 14.4974C17.8005 14.0579 17.78 13.5879 17.4224 13.1485V13.1485ZM17.2487 14.3543C17.0546 14.5689 16.8604 14.6405 16.6254 14.6302C16.4414 14.62 16.3188 14.5689 15.91 14.4054C15.5013 14.2317 15.2766 14.1704 15.0109 14.1602C14.7555 14.1294 14.5409 14.1806 13.9992 14.3645C13.9481 14.3849 13.9073 14.3952 13.8766 14.4054C13.1306 14.6608 12.773 14.6404 12.5277 14.1907C12.1599 13.5266 12.7219 12.6274 13.4883 12.5559L16.0736 12.4536C16.5641 12.658 17.0035 12.9543 17.2589 13.2712C17.5654 13.6389 17.5757 14.0068 17.2487 14.3543V14.3543Z" fill="#231F20"/>
<path d="M16.2984 12.0245C15.9816 10.8596 13.3248 11.0333 13.3861 12.423C13.5189 13.455 16.6049 13.1791 16.2984 12.0245Z" fill="black"/>
</svg>
