<svg width="37" height="40" viewBox="0 0 37 40" fill="none" xmlns="http://www.w3.org/2000/svg">
<path d="M16.5114 0.426744C17.5032 -0.140965 18.795 -0.143529 19.786 0.426744C24.7714 3.24378 29.7584 6.05639 34.743 8.87513C35.6805 9.40324 36.3076 10.4466 36.2981 11.5269V28.4753C36.3051 29.6003 35.616 30.6686 34.6269 31.1847C29.6578 33.9862 24.6914 36.7912 19.7232 39.5927C18.7108 40.1715 17.3931 40.1269 16.4124 39.5006C14.9226 38.637 13.4304 37.7777 11.9405 36.915C11.6361 36.7335 11.2929 36.589 11.0779 36.2938C11.2679 36.0377 11.6077 36.0058 11.8838 35.8939C12.5057 35.6962 13.0768 35.3788 13.648 35.0708C13.7925 34.9719 13.9689 35.0098 14.1073 35.0983C15.3812 35.8287 16.6439 36.5803 17.922 37.3037C18.1947 37.4612 18.4708 37.2522 18.7039 37.1222C23.58 34.3663 28.4622 31.6208 33.3375 28.864C33.5181 28.7771 33.618 28.5854 33.6033 28.3875C33.6067 22.7966 33.6042 17.2047 33.605 11.6138C33.6257 11.3893 33.4957 11.1829 33.2927 11.091C28.3409 8.30229 23.3917 5.50934 18.4407 2.71995C18.3549 2.66097 18.2533 2.62933 18.1492 2.62918C18.0451 2.62903 17.9434 2.66037 17.8575 2.71909C12.9065 5.50934 7.95815 8.30486 3.00719 11.0934C2.8049 11.1854 2.66913 11.3884 2.69321 11.6138C2.69406 17.2047 2.69321 22.7966 2.69321 28.3884C2.68462 28.4849 2.70583 28.5818 2.75397 28.6659C2.80211 28.75 2.87487 28.8174 2.96246 28.8589C4.28365 29.6081 5.60654 30.352 6.92858 31.0987C7.67337 31.4996 8.58782 31.7378 9.4084 31.4306C10.1325 31.1709 10.6401 30.432 10.6263 29.6631C10.6331 24.1048 10.6229 18.5457 10.6314 12.9883C10.6133 12.7415 10.8474 12.5377 11.0873 12.5609C11.7221 12.5566 12.3578 12.5523 12.9926 12.5626C13.2576 12.5566 13.4399 12.8223 13.4071 13.0709C13.4046 18.6644 13.414 24.258 13.4029 29.8514C13.4046 31.3421 12.7921 32.9642 11.4133 33.6936C9.71455 34.5736 7.61496 34.387 5.93677 33.5432C4.48395 32.818 3.09751 31.9623 1.67048 31.1854C0.678808 30.6722 -0.00685798 29.5996 0.000122616 28.4754V11.5269C-0.010277 10.4243 0.641768 9.36192 1.60851 8.84151C6.5767 6.03773 11.544 3.23181 16.5114 0.426744Z" fill="#8CC84B"/>
<path d="M20.8462 12.1669C23.013 12.0275 25.3327 12.0843 27.2826 13.1518C28.7923 13.9698 29.6292 15.6866 29.6559 17.3638C29.6137 17.59 29.3772 17.7148 29.1613 17.6993C28.5326 17.6984 27.9037 17.7078 27.2751 17.695C27.0084 17.7052 26.8534 17.4594 26.8199 17.2236C26.6393 16.4211 26.2016 15.6263 25.4463 15.2392C24.2868 14.6587 22.9424 14.6879 21.678 14.7C20.755 14.749 19.7625 14.829 18.9805 15.3717C18.3802 15.7829 18.1978 16.6128 18.4121 17.2813C18.6141 17.7612 19.1681 17.9161 19.6214 18.0588C22.2328 18.7418 24.9999 18.6738 27.5614 19.5726C28.6219 19.939 29.6593 20.6513 30.0223 21.7617C30.4971 23.2498 30.289 25.0286 29.2302 26.2232C28.3716 27.2064 27.1211 27.7414 25.8738 28.0321C24.2146 28.402 22.4926 28.4114 20.8076 28.2472C19.2231 28.0665 17.5743 27.6503 16.3511 26.5707C15.3051 25.6625 14.7943 24.2475 14.845 22.8817C14.8571 22.651 15.0867 22.4902 15.3077 22.5092C15.9408 22.504 16.5739 22.5023 17.207 22.51C17.4599 22.4919 17.6474 22.7104 17.6603 22.9488C17.7771 23.7134 18.0645 24.5159 18.7312 24.9692C20.0179 25.7993 21.6324 25.7424 23.1058 25.7657C24.3264 25.7115 25.6966 25.6951 26.6927 24.8884C27.2182 24.4282 27.3739 23.6584 27.2319 22.9961C27.078 22.4369 26.4931 22.1764 25.9908 22.006C23.4129 21.1905 20.6148 21.4864 18.0619 20.5643C17.0255 20.198 16.0233 19.5055 15.6251 18.4408C15.0695 16.9338 15.3241 15.0699 16.4938 13.9155C17.6344 12.7673 19.2808 12.3251 20.8462 12.1668V12.1669Z" fill="#8CC84B"/>
</svg>
